<svg width="14" height="14" viewBox="0 0 14 14" fill="none" xmlns="http://www.w3.org/2000/svg">
<g clip-path="url(#clip0_264_3969)">
<path d="M2.33325 6.60275C2.33325 8.41225 2.59225 9.7055 3.62942 11.2566C4.4175 12.3048 5.47042 12.5673 6.59275 11.8329C6.84125 11.6766 7.15859 11.6766 7.40767 11.8329C8.52942 12.5679 9.58234 12.3048 10.3704 11.2566C11.4076 9.70492 11.6666 8.41225 11.6666 6.60333C11.6666 5.05108 10.5058 3.5 9.07425 3.5C8.33517 3.5 7.66842 3.90425 7.19592 4.34C7.14225 4.3887 7.07238 4.41567 6.99992 4.41567C6.92745 4.41567 6.85758 4.3887 6.80392 4.34C6.332 3.90483 5.66467 3.5 4.92559 3.5C3.49409 3.5 2.33325 5.05167 2.33325 6.60275Z" stroke="#64748B" stroke-linecap="round" stroke-linejoin="round"/>
<path d="M4.08325 7C4.08325 6.1425 4.34809 5.635 4.95825 5.25" stroke="#64748B" stroke-linecap="round" stroke-linejoin="round"/>
<path d="M7 4.08333C7 3.38333 7.50575 1.75 8.75 1.75" stroke="#64748B" stroke-linecap="round" stroke-linejoin="round"/>
</g>
<defs>
<clipPath id="clip0_264_3969">
<rect width="14" height="14" fill="white"/>
</clipPath>
</defs>
</svg>
