<svg width="22" height="19" viewBox="0 0 22 19" fill="none" xmlns="http://www.w3.org/2000/svg">
<path d="M9.50534 4.35486L11.7419 7.7097L9.50534 11.0645H6.1505L3.91394 7.7097L6.1505 4.35486H9.50534Z" stroke="white" stroke-linecap="round" stroke-linejoin="round"/>
<path d="M15.0969 7.70968L17.3334 4.35484L15.0969 1H11.742L9.50545 4.35484L11.742 7.70968M15.0969 7.70968H11.742M15.0969 7.70968L17.3334 11.0645M11.742 7.70968L9.50545 11.0645L11.742 14.4194M15.0969 14.4194L17.3334 17.7742M15.0969 14.4194L17.3334 11.0645M15.0969 14.4194H11.742M3.91406 1L6.15062 4.35484M11.742 14.4194L10.6237 16.0968M6.15062 11.0645L5.03234 12.7419M3.91406 7.70968H2.79578M17.3334 11.0645H20.6883" stroke="white" stroke-linecap="round" stroke-linejoin="round"/>
<path d="M9.50531 18.3334C9.81411 18.3334 10.0644 18.083 10.0644 17.7742C10.0644 17.4654 9.81411 17.2151 9.50531 17.2151C9.1965 17.2151 8.94617 17.4654 8.94617 17.7742C8.94617 18.083 9.1965 18.3334 9.50531 18.3334Z" fill="white"/>
<path d="M3.914 14.9785C4.2228 14.9785 4.47314 14.7282 4.47314 14.4194C4.47314 14.1106 4.2228 13.8602 3.914 13.8602C3.60519 13.8602 3.35486 14.1106 3.35486 14.4194C3.35486 14.7282 3.60519 14.9785 3.914 14.9785Z" fill="white"/>
<path d="M0.55914 8.26879C0.867944 8.26879 1.11828 8.01846 1.11828 7.70965C1.11828 7.40085 0.867944 7.15051 0.55914 7.15051C0.250335 7.15051 0 7.40085 0 7.70965C0 8.01846 0.250335 8.26879 0.55914 8.26879Z" fill="white"/>
</svg>
