<svg width="21" height="21" viewBox="0 0 21 21" fill="none" xmlns="http://www.w3.org/2000/svg">
<path fill-rule="evenodd" clip-rule="evenodd" d="M19.25 4.08333C18.7859 4.08333 18.3408 4.26771 18.0126 4.5959C17.6844 4.92408 17.5 5.3692 17.5 5.83333V7H21V5.83333C21 5.3692 20.8156 4.92408 20.4874 4.5959C20.1592 4.26771 19.7141 4.08333 19.25 4.08333ZM21 8.16667H17.5V17.7917L19.25 20.4167L21 17.7917V8.16667ZM0 1.75V19.25C0 19.7141 0.184375 20.1592 0.512563 20.4874C0.840752 20.8156 1.28587 21 1.75 21H14.5833C15.0475 21 15.4926 20.8156 15.8208 20.4874C16.149 20.1592 16.3333 19.7141 16.3333 19.25V1.75C16.3333 1.28587 16.149 0.840752 15.8208 0.512563C15.4926 0.184375 15.0475 0 14.5833 0H1.75C1.28587 0 0.840752 0.184375 0.512563 0.512563C0.184375 0.840752 0 1.28587 0 1.75ZM8.16667 5.25C8.16667 5.09529 8.22812 4.94692 8.33752 4.83752C8.44692 4.72812 8.59529 4.66667 8.75 4.66667H13.4167C13.5714 4.66667 13.7197 4.72812 13.8291 4.83752C13.9385 4.94692 14 5.09529 14 5.25C14 5.40471 13.9385 5.55308 13.8291 5.66248C13.7197 5.77187 13.5714 5.83333 13.4167 5.83333H8.75C8.59529 5.83333 8.44692 5.77187 8.33752 5.66248C8.22812 5.55308 8.16667 5.40471 8.16667 5.25ZM8.75 7C8.59529 7 8.44692 7.06146 8.33752 7.17085C8.22812 7.28025 8.16667 7.42862 8.16667 7.58333C8.16667 7.73804 8.22812 7.88642 8.33752 7.99581C8.44692 8.10521 8.59529 8.16667 8.75 8.16667H13.4167C13.5714 8.16667 13.7197 8.10521 13.8291 7.99581C13.9385 7.88642 14 7.73804 14 7.58333C14 7.42862 13.9385 7.28025 13.8291 7.17085C13.7197 7.06146 13.5714 7 13.4167 7H8.75ZM8.16667 12.8333C8.16667 12.6786 8.22812 12.5302 8.33752 12.4209C8.44692 12.3115 8.59529 12.25 8.75 12.25H13.4167C13.5714 12.25 13.7197 12.3115 13.8291 12.4209C13.9385 12.5302 14 12.6786 14 12.8333C14 12.988 13.9385 13.1364 13.8291 13.2458C13.7197 13.3552 13.5714 13.4167 13.4167 13.4167H8.75C8.59529 13.4167 8.44692 13.3552 8.33752 13.2458C8.22812 13.1364 8.16667 12.988 8.16667 12.8333ZM8.75 14.5833C8.59529 14.5833 8.44692 14.6448 8.33752 14.7542C8.22812 14.8636 8.16667 15.012 8.16667 15.1667C8.16667 15.3214 8.22812 15.4697 8.33752 15.5791C8.44692 15.6885 8.59529 15.75 8.75 15.75H13.4167C13.5714 15.75 13.7197 15.6885 13.8291 15.5791C13.9385 15.4697 14 15.3214 14 15.1667C14 15.012 13.9385 14.8636 13.8291 14.7542C13.7197 14.6448 13.5714 14.5833 13.4167 14.5833H8.75ZM3.5 12.8333V14.5833H5.25V12.8333H3.5ZM2.91667 11.6667H5.83333C5.98804 11.6667 6.13642 11.7281 6.24581 11.8375C6.35521 11.9469 6.41667 12.0953 6.41667 12.25V15.1667C6.41667 15.3214 6.35521 15.4697 6.24581 15.5791C6.13642 15.6885 5.98804 15.75 5.83333 15.75H2.91667C2.76196 15.75 2.61358 15.6885 2.50419 15.5791C2.39479 15.4697 2.33333 15.3214 2.33333 15.1667V12.25C2.33333 12.0953 2.39479 11.9469 2.50419 11.8375C2.61358 11.7281 2.76196 11.6667 2.91667 11.6667ZM6.82908 5.66242C6.93534 5.5524 6.99414 5.40505 6.99281 5.2521C6.99148 5.09915 6.93013 4.95284 6.82198 4.84469C6.71382 4.73653 6.56751 4.67519 6.41457 4.67386C6.26162 4.67253 6.11427 4.73132 6.00425 4.83758L4.08333 6.7585L3.32908 6.00425C3.21907 5.89799 3.07171 5.83919 2.91877 5.84052C2.76582 5.84185 2.61951 5.9032 2.51136 6.01136C2.4032 6.11951 2.34185 6.26582 2.34052 6.41877C2.33919 6.57171 2.39799 6.71907 2.50425 6.82908L4.08333 8.40817L6.82908 5.66242Z" fill="#2E4995"/>
</svg>
