<svg width="20" height="21" viewBox="0 0 20 21" fill="none" xmlns="http://www.w3.org/2000/svg">
<path d="M0.666687 19.3333V7.74399C0.666687 7.40265 0.743131 7.07954 0.89602 6.77465C1.04891 6.46977 1.25958 6.21865 1.52802 6.02132L8.70802 0.583988C9.08402 0.296876 9.51335 0.15332 9.99602 0.15332C10.4787 0.15332 10.9107 0.296876 11.292 0.583988L18.472 6.01999C18.7414 6.21732 18.952 6.46888 19.104 6.77465C19.2569 7.07954 19.3334 7.40265 19.3334 7.74399V19.3333C19.3334 19.6907 19.2005 20.0022 18.9347 20.268C18.6689 20.5338 18.3574 20.6667 18 20.6667H13.488C13.1822 20.6667 12.9262 20.5635 12.72 20.3573C12.5138 20.1502 12.4107 19.8942 12.4107 19.5893V13.2307C12.4107 12.9258 12.3076 12.6702 12.1014 12.464C11.8942 12.2569 11.6382 12.1533 11.3334 12.1533H8.66669C8.3618 12.1533 8.10624 12.2569 7.90002 12.464C7.69291 12.6702 7.58935 12.9258 7.58935 13.2307V19.5907C7.58935 19.8955 7.48624 20.1511 7.28002 20.3573C7.0738 20.5635 6.81824 20.6667 6.51335 20.6667H2.00002C1.64269 20.6667 1.33113 20.5338 1.06535 20.268C0.799576 20.0022 0.666687 19.6907 0.666687 19.3333Z" fill="black"/>
</svg>
