<svg width="20" height="20" viewBox="0 0 20 20" fill="none" xmlns="http://www.w3.org/2000/svg">
<path d="M9.99997 4.82747C10.9895 5.54899 11.9207 6.34729 12.785 7.21497C13.6527 8.07921 14.451 9.01042 15.1725 9.99997M9.99997 4.82747C9.01042 5.54899 8.07921 6.34729 7.21497 7.21497C6.34729 8.07921 5.54899 9.01042 4.82747 9.99997M9.99997 4.82747C12.975 2.67414 15.7891 1.86581 16.9616 3.03831C18.1341 4.21081 17.3258 7.02497 15.1725 9.99997M15.1725 9.99997C17.3258 12.975 18.1341 15.7891 16.9616 16.9616C16.0925 17.8308 14.32 17.6116 12.25 16.5616M15.1725 9.99997C14.451 10.9895 13.6527 11.9207 12.785 12.785C11.9207 13.6527 10.9895 14.451 9.99997 15.1725M4.82747 9.99997C5.54899 10.9895 6.34729 11.9207 7.21497 12.785C8.07921 13.6527 9.01042 14.451 9.99997 15.1725M4.82747 9.99997C2.67414 12.975 1.86581 15.7891 3.03831 16.9616C4.21081 18.1341 7.02497 17.3258 9.99997 15.1725M4.82747 9.99997C2.67497 7.02497 1.86664 4.21081 3.03831 3.03831C3.90747 2.16914 5.67997 2.38831 7.74997 3.43831" stroke="white" stroke-width="1.5" stroke-linecap="round" stroke-linejoin="round"/>
<path d="M9.99998 11.6666C10.9205 11.6666 11.6666 10.9204 11.6666 9.99992C11.6666 9.07944 10.9205 8.33325 9.99998 8.33325C9.07951 8.33325 8.33331 9.07944 8.33331 9.99992C8.33331 10.9204 9.07951 11.6666 9.99998 11.6666Z" stroke="white" stroke-width="1.5" stroke-linecap="round" stroke-linejoin="round"/>
</svg>
