<svg width="32" height="32" viewBox="0 0 32 32" fill="none" xmlns="http://www.w3.org/2000/svg">
<g clip-path="url(#clip0_882_733)">
<path d="M12.6531 27.0459C12.7592 27.8504 13.1645 28.5851 13.7878 29.1045C14.4067 29.6203 15.1954 29.8857 15.9998 29.8496C16.8043 29.8858 17.5937 29.6203 18.2126 29.1045C18.8358 28.5851 19.2414 27.8503 19.3474 27.0459L19.3992 26.6504H12.6003L12.6531 27.0459ZM15.9998 5.88969C15.0298 5.80958 14.0552 5.97736 13.1687 6.37992C12.2728 6.78682 11.4967 7.41902 10.9167 8.21391L10.9089 8.22465L10.9021 8.23539C10.1301 9.48112 9.70064 10.9068 9.65405 12.3682L9.65015 12.6602V19.4444L9.34253 19.9756L6.66187 24.3164L6.33276 24.8496H25.6677L25.3376 24.3164L22.658 19.9756L22.3503 19.4463V12.6602C22.3552 11.0972 21.9208 9.56396 21.0974 8.23539L21.0906 8.22465L21.0828 8.21391L20.8562 7.92387C20.3069 7.26478 19.6149 6.73601 18.8308 6.37992C17.9443 5.97741 16.9697 5.80951 15.9998 5.88969ZM15.9998 2.15043C15.5525 2.12315 15.111 2.26703 14.7673 2.5557C14.417 2.85005 14.1956 3.27021 14.1511 3.72562L14.1121 4.1348L14.5222 4.10941C15.007 4.07907 15.4935 4.07905 15.9783 4.10941L15.9998 4.11039L16.0222 4.10941C16.507 4.07907 16.9935 4.07905 17.4783 4.10941L17.8884 4.1348L17.8484 3.72562C17.8039 3.27017 17.5826 2.85005 17.2322 2.5557C16.8884 2.26701 16.4471 2.12304 15.9998 2.15043ZM7.85034 12.6495L7.84937 12.6397C7.7586 11.0625 8.11629 9.49199 8.88062 8.10941C9.64497 6.72678 10.7847 5.58816 12.1687 4.82621L12.3757 4.71293L12.3474 4.47855C12.3205 4.25381 12.3206 4.02654 12.3474 3.8018L12.3494 3.78617V3.77055C12.3635 3.30694 12.4694 2.85064 12.6599 2.42777C12.8505 2.0049 13.1227 1.62338 13.4607 1.3057C13.7986 0.988144 14.1959 0.740232 14.6296 0.57621C15.0635 0.412168 15.5254 0.335088 15.989 0.349648L15.9998 0.350624L16.0105 0.349648C16.4741 0.335087 16.937 0.412138 17.3708 0.57621C17.8046 0.740283 18.2019 0.988102 18.5398 1.3057C18.8777 1.62334 19.149 2.00496 19.3396 2.42777C19.5302 2.85064 19.636 3.30695 19.6501 3.77055V3.77836L19.6511 3.78617C19.669 4.02136 19.669 4.25801 19.6511 4.4932L19.6335 4.71781L19.8308 4.82621C21.2148 5.58816 22.3555 6.72677 23.1199 8.10941C23.8841 9.49194 24.2409 11.0626 24.1501 12.6397V18.9385L24.2009 19.0225L26.8611 23.3819C27.0589 23.7069 27.1673 24.0786 27.1746 24.459C27.1818 24.8395 27.0875 25.2156 26.9021 25.5479C26.7167 25.8801 26.4463 26.157 26.1189 26.3506C25.7914 26.5443 25.4183 26.6481 25.0378 26.6504H21.1726L21.1511 26.9766C21.0646 28.2691 20.4807 29.4783 19.5222 30.3496C18.5637 31.221 17.3043 31.6872 16.0095 31.6504L15.9998 31.6495L15.99 31.6504C14.6953 31.6871 13.4367 31.2208 12.4783 30.3496C11.5198 29.4783 10.9358 28.2691 10.8494 26.9766L10.8269 26.6504H6.96167C6.5813 26.648 6.20803 26.5442 5.88062 26.3506C5.55324 26.157 5.28275 25.88 5.09741 25.5479C4.91202 25.2156 4.8187 24.8395 4.82593 24.459C4.83319 24.0787 4.94063 23.7068 5.13843 23.3819L7.79858 19.0225L7.85034 18.9385V12.6495Z" fill="black" stroke="white" stroke-width="0.7"/>
<circle cx="24" cy="9.33334" r="8" fill="#DE2222"/>
<path d="M21.6834 12.6667V11.7967L24.4634 9.15666C24.6967 8.93666 24.87 8.74333 24.9834 8.57666C25.0967 8.41 25.17 8.25666 25.2034 8.11666C25.2434 7.97 25.2634 7.83333 25.2634 7.70666C25.2634 7.38666 25.1534 7.14 24.9334 6.96666C24.7134 6.78666 24.39 6.69666 23.9634 6.69666C23.6234 6.69666 23.3134 6.75666 23.0334 6.87666C22.76 6.99666 22.5234 7.18 22.3234 7.42666L21.4134 6.72666C21.6867 6.36 22.0534 6.07666 22.5134 5.87666C22.98 5.67 23.5 5.56666 24.0734 5.56666C24.58 5.56666 25.02 5.65 25.3934 5.81666C25.7734 5.97666 26.0634 6.20666 26.2634 6.50666C26.47 6.80666 26.5734 7.16333 26.5734 7.57666C26.5734 7.80333 26.5434 8.03 26.4834 8.25666C26.4234 8.47666 26.31 8.71 26.1434 8.95666C25.9767 9.20333 25.7334 9.48 25.4134 9.78666L23.0234 12.0567L22.7534 11.5667H26.8434V12.6667H21.6834Z" fill="white"/>
</g>
<defs>
<clipPath id="clip0_882_733">
<rect width="32" height="32" fill="white"/>
</clipPath>
</defs>
</svg>
