<svg width="18" height="24" viewBox="0 0 18 24" fill="none" xmlns="http://www.w3.org/2000/svg">
<path d="M4.5249 3.26406V1.33794C4.5249 0.596479 5.13018 0 5.87324 0H12.1264C12.8737 0 13.4748 0.600614 13.4748 1.33794V3.2682C13.4748 4.00966 12.8695 4.60614 12.1264 4.60614H5.87324C5.12602 4.60614 4.5249 4.00553 4.5249 3.26406ZM16.6517 1.67345H14.2263V3.08594H15.75C16.205 3.08594 16.5765 3.45459 16.5765 3.90611V21.7716C16.5765 22.2231 16.205 22.5918 15.75 22.5918H2.25001C1.79501 22.5918 1.42347 22.2231 1.42347 21.7716V3.90611C1.42347 3.45462 1.79498 3.08594 2.25001 3.08594H3.77367V1.67345H1.34834C0.601115 1.67345 0 2.27407 0 3.0114V22.6621C0 23.4035 0.605283 24 1.34834 24H16.6517C17.3989 24 18 23.3994 18 22.6621V3.0114C18 2.2741 17.3989 1.67345 16.6517 1.67345ZM2.25001 3.83154H3.86132C4.11179 4.70555 4.91327 5.35174 5.87337 5.35174H12.1266C13.0867 5.35174 13.8882 4.70555 14.1386 3.83154H15.7499C15.7917 3.83154 15.8251 3.86468 15.8251 3.9061V21.7716C15.8251 21.813 15.7917 21.8461 15.7499 21.8461H2.24996C2.20822 21.8461 2.17482 21.813 2.17482 21.7716V3.9061C2.17482 3.86468 2.20827 3.83154 2.25001 3.83154ZM12.2977 15.8854C12.089 15.8854 11.922 16.0511 11.922 16.2582C11.922 16.4653 12.089 16.631 12.2977 16.631H14.051C14.2597 16.631 14.4267 16.4653 14.4267 16.2582C14.4267 16.0511 14.2597 15.8854 14.051 15.8854H12.2977ZM5.09689 10.5752C5.09689 12.7126 6.85015 14.4481 8.99987 14.4481C11.1496 14.4481 12.9028 12.7083 12.9028 10.5752C12.9028 8.44206 11.1496 6.70233 8.99987 6.70233C6.85015 6.70233 5.09689 8.44206 5.09689 10.5752ZM3.57324 16.2584C3.57324 16.4656 3.74022 16.6312 3.94893 16.6312H10.34C10.5487 16.6312 10.7157 16.4655 10.7157 16.2584C10.7157 16.0513 10.5487 15.8857 10.34 15.8857H3.94893C3.7402 15.8857 3.57324 16.0513 3.57324 16.2584ZM3.57324 18.897C3.57324 19.1041 3.74022 19.2698 3.94893 19.2698H14.0509C14.2596 19.2698 14.4265 19.1041 14.4265 18.897C14.4265 18.6899 14.2596 18.5242 14.0509 18.5242H3.94893C3.7402 18.5242 3.57324 18.6941 3.57324 18.897ZM5.84829 10.5752C5.84829 8.84793 7.25923 7.44782 9 7.44782C10.7408 7.44782 12.1517 8.84787 12.1517 10.5752C12.1517 12.3026 10.7408 13.7026 9 13.7026C7.25923 13.7026 5.84829 12.3067 5.84829 10.5752ZM7.58067 10.8735L8.3279 11.6149C8.39886 11.6853 8.49488 11.7226 8.59506 11.7226C8.69525 11.7226 8.79126 11.6853 8.86223 11.6149L10.4193 10.0699C10.5654 9.92491 10.5654 9.6888 10.4193 9.54382C10.2732 9.39884 10.0352 9.39884 9.88912 9.54382L8.59504 10.8279L8.11497 10.3433C7.96887 10.1983 7.73093 10.1983 7.58482 10.3433C7.43454 10.4924 7.43457 10.7243 7.58067 10.8735Z" fill="#2E4995"/>
</svg>
